<svg width="18" height="18" viewBox="0 0 18 18" fill="none" xmlns="http://www.w3.org/2000/svg">
<path d="M13.926 0H4.07401C1.824 0 0 1.83156 0 4.09091V13.9091C0 16.1684 1.824 18 4.07401 18H13.926C16.176 18 18 16.1684 18 13.9091V4.09091C18 1.83156 16.176 0 13.926 0Z" fill="#5F82A6"/>
<path d="M8.97901 12.4351C10.9022 12.4351 12.4613 10.8695 12.4613 8.93834C12.4613 7.00714 10.9022 5.44159 8.97901 5.44159C7.05579 5.44159 5.4967 7.00714 5.4967 8.93834C5.4967 10.8695 7.05579 12.4351 8.97901 12.4351Z" fill="#333750"/>
<path d="M9.07758 14.3197C12.0374 14.3197 14.4368 11.9104 14.4368 8.93826C14.4368 5.96614 12.0374 3.55676 9.07758 3.55676C6.11775 3.55676 3.71832 5.96614 3.71832 8.93826C3.71832 11.9104 6.11775 14.3197 9.07758 14.3197Z" stroke="white" stroke-width="1.29334" stroke-linecap="round" stroke-linejoin="round"/>
<path d="M7.18286 7.93024L9.10508 9.86043L15.3842 3.55524" stroke="white" stroke-width="1.29334" stroke-linecap="round" stroke-linejoin="round"/>
</svg>
