<svg width="56" height="80" viewBox="0 0 56 80" fill="none" xmlns="http://www.w3.org/2000/svg">
<path d="M55.9999 71.8527V78.6208C55.9999 79.3828 55.349 80 54.5454 80H1.45454C0.650908 80 0 79.3828 0 78.6208V71.8527C0 64.7518 6.0709 58.9991 13.5618 58.9973C16.2091 58.9956 18.54 57.7044 19.8818 55.746C21.2298 53.7818 21.0909 52.0737 21.0909 50.6932L21.1182 50.6294C14.5909 48.0676 9.99999 41.9701 9.99999 34.8554V34.3159C7.40817 34.3159 5.45454 32.3738 5.45454 30.0853V22.9207C5.39636 20.4262 5.51636 11.6289 12.2182 5.50383C20.0109 -1.61772 32.36 -1.03503 41.3054 2.77485C41.5963 2.89897 41.5872 3.29375 41.2927 3.40926L38.96 4.31949C38.6109 4.45568 38.6854 4.94355 39.06 4.98148L40.1927 5.09698C45.6163 5.64692 50.6545 8.43968 53.7781 13.0874C53.8618 13.2132 53.8381 13.4046 53.7309 13.5132C51.8036 15.4457 50.7272 18.0109 50.7272 20.6779V30.0853C50.7272 32.4213 48.729 34.3159 46.2654 34.3159H46V34.8554C46 41.9701 41.409 48.0676 34.8818 50.6294L34.9091 50.6932C34.9091 52.0339 34.7587 53.7652 36.1181 55.746C37.46 57.7044 39.7909 58.9956 42.4381 58.9973C49.929 58.9991 55.9999 64.7518 55.9999 71.8527Z" fill="#BE8F55"/>
<path d="M55.9999 71.8528V78.6209C55.9999 79.3825 55.3487 80 54.5454 80H1.45454C0.651272 80 0 79.3825 0 78.6209V71.8528C0 64.7519 6.07181 59 13.5609 58.9974C16.2089 58.9966 18.5403 57.7038 19.8818 55.7461C24.5643 59.5391 31.4329 59.5413 36.1181 55.7461C37.4594 57.7038 39.791 58.9966 42.439 58.9974C49.9281 59 55.9999 64.7519 55.9999 71.8528V71.8528Z" fill="#323751"/>
<path d="M53.7775 13.0882C53.8619 13.2138 53.8383 13.4041 53.7304 13.5124C51.8037 15.4463 50.7274 18.0107 50.7274 20.6777V30.0852C50.7274 32.2208 49.0304 34.3157 46.0001 34.3157V23.667C46.0001 19.0969 42.0928 15.3922 37.2728 15.3922H18.7274C13.9074 15.3922 10.0001 19.0969 10.0001 23.667V34.3157C7.40831 34.3157 5.45467 32.3737 5.45467 30.0852V22.9206C5.39649 20.4261 5.51649 11.6288 12.2183 5.50373C20.0105 -1.61799 32.3608 -1.03496 41.3048 2.77527C41.5957 2.89922 41.5881 3.29417 41.293 3.40933L38.9601 4.31991C38.6114 4.4561 38.6848 4.94345 39.0597 4.98155L40.1928 5.09688C45.6174 5.6463 50.6543 8.43906 53.7775 13.0882V13.0882Z" fill="#42434D"/>
<path d="M46 34.8553C46 44.2845 37.9367 51.9222 28 51.9222C18.6378 51.9222 10 45.0212 10 34.3158V23.6671C10 19.0969 13.9073 15.3922 18.7273 15.3922H37.2727C42.0927 15.3922 46 19.0969 46 23.6671V34.8553Z" fill="#B7884E"/>
<path d="M42.7274 77.0693H38.3637C37.5605 77.0693 36.9092 76.4518 36.9092 75.6902C36.9092 74.9285 37.5605 74.311 38.3637 74.311H42.7274C43.5306 74.311 44.1819 74.9285 44.1819 75.6902C44.1819 76.4518 43.5308 77.0693 42.7274 77.0693Z" fill="white"/>
<path d="M23.9244 45.8761C26.8838 47.6316 24.5502 51.9368 21.3105 50.7038C14.6498 48.169 10 42.0145 10 34.8554V23.6671C10 21.9287 10.5655 20.3155 11.5313 18.9836C12.7156 17.3505 15.4545 18.072 15.4545 20.2193V31.4076C15.4545 37.7016 18.944 42.9217 23.9244 45.8761Z" fill="#BE8F55"/>
<path d="M35.1148 53.5239C30.6354 55.3018 25.7127 55.4397 20.8857 53.5239C21.1323 52.554 21.0912 51.9258 21.0912 50.6932L21.1185 50.6294C25.497 52.3526 30.495 52.3561 34.8821 50.6294L34.9094 50.6932C34.9094 51.9263 34.8683 52.5543 35.1148 53.5239Z" fill="#B7884E"/>
<path d="M20.8876 63.1619C20.2152 63.3624 19.4942 63.4729 18.7211 63.4793C11.2127 63.542 5.0909 69.1712 5.0909 76.2907V77.5865C5.0909 78.9195 3.95127 80 2.54545 80H1.45454C0.651272 80 0 79.3825 0 78.6209V71.8528C0 64.7517 6.07181 59 13.5609 58.9974C16.2089 58.9966 18.5403 57.7038 19.8818 55.7461C20.4225 56.184 21.0014 56.5775 21.6112 56.9222C24.2936 58.4377 23.8661 62.2739 20.8876 63.1619Z" fill="#5F82A6"/>
<path d="M35.1119 63.1619C35.7843 63.3624 36.5054 63.4729 37.2785 63.4793C44.7868 63.542 50.9087 69.1712 50.9087 76.2907V77.5865C50.9087 78.9195 52.0483 80 53.4541 80H54.545C55.3483 80 55.9996 79.3825 55.9996 78.6209V71.8528C55.9996 64.7517 49.9278 59 42.4387 58.9974C39.7907 58.9966 37.4592 57.7038 36.1177 55.7461C35.577 56.184 34.9981 56.5775 34.3883 56.9222C31.7061 58.4377 32.1334 62.2739 35.1119 63.1619V63.1619Z" fill="#232842"/>
<path d="M41.2928 3.40926C39.155 4.24346 38.8502 4.42741 38.1095 4.31846C26.1688 2.5635 15.6925 7.24793 12.1347 18.2454V18.2471C10.8038 19.6987 10.0001 21.595 10.0001 23.6671V30.1358C10.0001 32.9265 5.45467 33.1208 5.45467 30.0853V22.9207C5.39649 20.4262 5.51649 11.6289 12.2183 5.50383C20.011 -1.61772 32.3601 -1.03503 41.3055 2.77485C41.5964 2.89897 41.5873 3.29375 41.2928 3.40926V3.40926Z" fill="#4D4E59"/>
</svg>
